<svg width="18" height="17" viewBox="0 0 18 17" fill="none" xmlns="http://www.w3.org/2000/svg">
<path d="M8.68343 14.0234L4.53343 16.5234C4.3501 16.64 4.15843 16.69 3.95843 16.6734C3.75843 16.6567 3.58343 16.59 3.43343 16.4734C3.28343 16.3567 3.16677 16.211 3.08343 16.0364C3.0001 15.8617 2.98343 15.6657 3.03343 15.4484L4.13343 10.7234L0.458434 7.54836C0.291768 7.39836 0.187768 7.22736 0.146434 7.03536C0.105101 6.84336 0.117434 6.65603 0.183434 6.47336C0.249434 6.2907 0.349434 6.1407 0.483434 6.02336C0.617434 5.90603 0.800768 5.83103 1.03343 5.79836L5.88343 5.37336L7.75843 0.923364C7.84177 0.723364 7.9711 0.573364 8.14643 0.473364C8.32177 0.373364 8.50077 0.323364 8.68343 0.323364C8.8661 0.323364 9.0451 0.373364 9.22043 0.473364C9.39577 0.573364 9.5251 0.723364 9.60843 0.923364L11.4834 5.37336L16.3334 5.79836C16.5668 5.8317 16.7501 5.9067 16.8834 6.02336C17.0168 6.14003 17.1168 6.29003 17.1834 6.47336C17.2501 6.6567 17.2628 6.84436 17.2214 7.03636C17.1801 7.22836 17.0758 7.39903 16.9084 7.54836L13.2334 10.7234L14.3334 15.4484C14.3834 15.665 14.3668 15.861 14.2834 16.0364C14.2001 16.2117 14.0834 16.3574 13.9334 16.4734C13.7834 16.5894 13.6084 16.656 13.4084 16.6734C13.2084 16.6907 13.0168 16.6407 12.8334 16.5234L8.68343 14.0234Z" fill="#EA6D27"/>
</svg>
