<svg width="84" height="84" viewBox="0 0 84 84" fill="none" xmlns="http://www.w3.org/2000/svg">
<path d="M68.6053 33.5252C66.0135 29.4646 62.5272 26.0506 58.413 23.5447C61.741 22.8506 62.4247 22.2884 62.7821 21.8095C62.9046 21.6543 62.9942 21.4759 63.0455 21.285C63.0968 21.094 63.1087 20.8947 63.0806 20.699C62.7786 18.6411 59.9226 17.8048 53.218 17.8048C50.2682 17.8048 47.3497 17.9818 45.6909 18.1067L46.3329 8.75774C46.3441 8.60077 46.3237 8.44315 46.2731 8.29415C46.2224 8.14516 46.1425 8.0078 46.0379 7.89017C45.9332 7.7721 45.8058 7.67625 45.6633 7.6083C45.5209 7.54035 45.3662 7.50167 45.2085 7.49456L40.7388 7.28287C40.5838 7.27444 40.4287 7.29669 40.2823 7.34832C40.1359 7.39996 40.0011 7.47997 39.8857 7.58377C39.7703 7.68758 39.6765 7.81313 39.6097 7.95325C39.5429 8.09336 39.5044 8.24528 39.4964 8.4003L38.9342 18.2525C36.5375 18.1164 34.1374 18.0458 31.7368 18.0408C23.6649 18.0408 22.0408 19.0819 21.4856 20.2167C21.3842 20.4192 21.3314 20.6426 21.3314 20.8691C21.3314 21.0956 21.3842 21.319 21.4856 21.5215C21.7597 22.0767 22.3289 22.6979 25.4452 23.6349C20.8535 26.4589 17.0621 30.4124 14.4328 35.1183C11.8034 39.8241 10.4239 45.1252 10.4257 50.5158C10.2923 54.3159 11.0738 58.0925 12.7044 61.5276C14.335 64.9626 16.7669 67.9557 19.7955 70.2549C26.3011 74.7518 34.0931 77.0101 41.995 76.6888C49.9025 77.0073 57.6986 74.7427 64.2049 70.2375C67.2336 67.9384 69.6655 64.9453 71.2961 61.5102C72.9267 58.0751 73.7081 54.2986 73.5747 50.4985C73.5745 44.4821 71.8499 38.5918 68.6053 33.5252ZM42.5295 24.7523C42.3278 24.6056 42.0848 24.5266 41.8354 24.5266C41.586 24.5266 41.343 24.6056 41.1413 24.7523C37.386 27.4811 33.4854 30.0043 29.4569 32.3106C30.8319 29.7487 32.3749 27.2806 34.0758 24.9224C34.1913 24.7601 34.2639 24.5712 34.2867 24.3734C34.3095 24.1755 34.2819 23.9751 34.2063 23.7908C34.1308 23.6065 34.0099 23.4443 33.8548 23.3194C33.6997 23.1944 33.5154 23.1107 33.3193 23.0762C30.4068 22.5319 27.5321 21.8016 24.713 20.8899C27.0268 20.4877 29.3755 20.3214 31.723 20.3936C35.8561 20.3936 39.9059 20.6886 39.9476 20.6921C40.1041 20.7042 40.2614 20.685 40.4104 20.6355C40.5593 20.586 40.697 20.5074 40.8151 20.4041C41.0515 20.1929 41.1959 19.8978 41.2177 19.5816L41.7938 9.71207L43.8759 9.81271L43.2339 19.3248C43.2207 19.4957 43.2449 19.6675 43.3049 19.8281C43.3648 19.9887 43.459 20.1343 43.581 20.2548C43.7038 20.3746 43.8512 20.4661 44.0131 20.5231C44.1749 20.58 44.3472 20.601 44.5179 20.5845C44.5596 20.5845 48.9217 20.182 53.211 20.182C55.4359 20.0934 57.6631 20.287 59.8393 20.758C57.0736 21.4493 54.2661 21.9605 51.4342 22.2884C51.231 22.3123 51.0374 22.3885 50.8726 22.5098C50.7077 22.631 50.5773 22.7931 50.4939 22.98C50.4106 23.1669 50.3774 23.3722 50.3974 23.5759C50.4175 23.7796 50.4902 23.9745 50.6083 24.1416C52.5173 26.6933 54.0657 29.4959 55.2099 32.4703C50.7231 30.3514 46.4727 27.7644 42.5295 24.7523Z" fill="#EA7727"/>
</svg>
