<svg width="84" height="84" viewBox="0 0 84 84" fill="none" xmlns="http://www.w3.org/2000/svg">
<path d="M27.1249 8.75C27.1249 8.05381 26.8483 7.38613 26.356 6.89384C25.8637 6.40156 25.1961 6.125 24.4999 6.125C23.8037 6.125 23.136 6.40156 22.6437 6.89384C22.1514 7.38613 21.8749 8.05381 21.8749 8.75V14.28C16.8349 14.6825 13.5309 15.6695 11.1019 18.102C8.66937 20.531 7.68237 23.8385 7.27637 28.875H76.7234C76.3174 23.835 75.3304 20.531 72.8979 18.102C70.4689 15.6695 67.1614 14.6825 62.1249 14.2765V8.75C62.1249 8.05381 61.8483 7.38613 61.356 6.89384C60.8637 6.40156 60.1961 6.125 59.4999 6.125C58.8037 6.125 58.136 6.40156 57.6437 6.89384C57.1514 7.38613 56.8749 8.05381 56.8749 8.75V14.0455C54.5474 14 51.9364 14 48.9999 14H34.9999C32.0634 14 29.4524 14 27.1249 14.0455V8.75Z" fill="#EA7727"/>
<path fill-rule="evenodd" clip-rule="evenodd" d="M7 42C7 39.0635 7 36.4525 7.0455 34.125H76.9545C77 36.4525 77 39.0635 77 42V49C77 62.1985 77 68.7995 72.898 72.898C68.796 76.9965 62.1985 77 49 77H35C21.8015 77 15.2005 77 11.102 72.898C7.0035 68.796 7 62.1985 7 49V42ZM59.5 49C60.4283 49 61.3185 48.6313 61.9749 47.9749C62.6313 47.3185 63 46.4283 63 45.5C63 44.5717 62.6313 43.6815 61.9749 43.0251C61.3185 42.3687 60.4283 42 59.5 42C58.5717 42 57.6815 42.3687 57.0251 43.0251C56.3687 43.6815 56 44.5717 56 45.5C56 46.4283 56.3687 47.3185 57.0251 47.9749C57.6815 48.6313 58.5717 49 59.5 49ZM59.5 63C60.4283 63 61.3185 62.6313 61.9749 61.9749C62.6313 61.3185 63 60.4283 63 59.5C63 58.5717 62.6313 57.6815 61.9749 57.0251C61.3185 56.3687 60.4283 56 59.5 56C58.5717 56 57.6815 56.3687 57.0251 57.0251C56.3687 57.6815 56 58.5717 56 59.5C56 60.4283 56.3687 61.3185 57.0251 61.9749C57.6815 62.6313 58.5717 63 59.5 63ZM45.5 45.5C45.5 46.4283 45.1312 47.3185 44.4749 47.9749C43.8185 48.6313 42.9283 49 42 49C41.0717 49 40.1815 48.6313 39.5251 47.9749C38.8687 47.3185 38.5 46.4283 38.5 45.5C38.5 44.5717 38.8687 43.6815 39.5251 43.0251C40.1815 42.3687 41.0717 42 42 42C42.9283 42 43.8185 42.3687 44.4749 43.0251C45.1312 43.6815 45.5 44.5717 45.5 45.5ZM45.5 59.5C45.5 60.4283 45.1312 61.3185 44.4749 61.9749C43.8185 62.6313 42.9283 63 42 63C41.0717 63 40.1815 62.6313 39.5251 61.9749C38.8687 61.3185 38.5 60.4283 38.5 59.5C38.5 58.5717 38.8687 57.6815 39.5251 57.0251C40.1815 56.3687 41.0717 56 42 56C42.9283 56 43.8185 56.3687 44.4749 57.0251C45.1312 57.6815 45.5 58.5717 45.5 59.5ZM24.5 49C25.4283 49 26.3185 48.6313 26.9749 47.9749C27.6313 47.3185 28 46.4283 28 45.5C28 44.5717 27.6313 43.6815 26.9749 43.0251C26.3185 42.3687 25.4283 42 24.5 42C23.5717 42 22.6815 42.3687 22.0251 43.0251C21.3687 43.6815 21 44.5717 21 45.5C21 46.4283 21.3687 47.3185 22.0251 47.9749C22.6815 48.6313 23.5717 49 24.5 49ZM24.5 63C25.4283 63 26.3185 62.6313 26.9749 61.9749C27.6313 61.3185 28 60.4283 28 59.5C28 58.5717 27.6313 57.6815 26.9749 57.0251C26.3185 56.3687 25.4283 56 24.5 56C23.5717 56 22.6815 56.3687 22.0251 57.0251C21.3687 57.6815 21 58.5717 21 59.5C21 60.4283 21.3687 61.3185 22.0251 61.9749C22.6815 62.6313 23.5717 63 24.5 63Z" fill="#EA7727"/>
</svg>
