<svg width="84" height="85" viewBox="0 0 84 85" fill="none" xmlns="http://www.w3.org/2000/svg">
<path d="M73.5 32C69.65 32 66.5 35.15 66.5 39V53H17.5V39C17.5 35.15 14.35 32 10.5 32C6.65 32 3.5 35.15 3.5 39V56.5C3.5 62.275 8.225 67 14 67V70.5C14 72.425 15.575 74 17.5 74C19.425 74 21 72.425 21 70.5V67H63V70.5C63 72.425 64.575 74 66.5 74C68.425 74 70 72.425 70 70.5V67C75.775 67 80.5 62.275 80.5 56.5V39C80.5 35.15 77.35 32 73.5 32Z" fill="#EA7727"/>
<path d="M24.5 39V46H59.5V39C59.5 32.49 63.98 27.065 70 25.49V21.5C70 15.725 65.275 11 59.5 11H24.5C18.725 11 14 15.725 14 21.5V25.49C20.02 27.065 24.5 32.49 24.5 39Z" fill="#EA7727"/>
</svg>
