<svg width="84" height="84" viewBox="0 0 84 84" fill="none" xmlns="http://www.w3.org/2000/svg">
<path d="M66.5002 66.507V73.5C66.5001 74.3573 66.1853 75.1847 65.6157 75.8253C65.046 76.4659 64.2611 76.8752 63.4097 76.9755L63.0002 77H21.0002C20.0719 77 19.1817 76.6313 18.5253 75.9749C17.8689 75.3185 17.5002 74.4283 17.5002 73.5V66.521C17.5002 65.5927 17.8689 64.7025 18.5253 64.0461C19.1817 63.3897 20.0719 63.021 21.0002 63.021L63.0002 63.007C63.9285 63.007 64.8187 63.3757 65.4751 64.0321C66.1315 64.6885 66.5002 65.5787 66.5002 66.507ZM42.0002 7C45.3327 6.99937 48.5961 7.95027 51.4066 9.74089C54.2172 11.5315 56.4581 14.0874 57.8657 17.108L58.0757 17.5875L58.5517 17.556C62.3958 17.3821 66.1901 18.4801 69.3473 20.68C72.5044 22.8799 74.8485 26.0591 76.0167 29.7255L76.2372 30.471C77.3122 34.4393 76.9558 38.6594 75.2304 42.3911C73.505 46.1229 70.5208 49.128 66.8012 50.8795L66.4967 51.009V56.007C66.4967 56.9353 66.1279 57.8255 65.4716 58.4819C64.8152 59.1382 63.925 59.507 62.9967 59.507L20.9967 59.521C20.1394 59.5209 19.312 59.2062 18.6714 58.6365C18.0308 58.0668 17.6215 57.2819 17.5212 56.4305L17.4967 56.021V51.0055L17.0662 50.813C14.9125 49.7765 12.9939 48.3098 11.4289 46.5033C9.86378 44.6968 8.68533 42.5889 7.9662 40.3095L7.7422 39.529C7.02691 36.8348 6.96558 34.0087 7.56331 31.286C8.16104 28.5633 9.40054 26.0227 11.1786 23.8759C12.9567 21.7291 15.2219 20.038 17.7856 18.9436C20.3493 17.8492 23.1374 17.3831 25.9177 17.584L26.1487 17.087C27.5011 14.1947 29.619 11.7275 32.273 9.95258C34.9271 8.17766 38.0161 7.16266 41.2057 7.0175L42.0002 7Z" fill="#EA7727"/>
</svg>
